<?xml version="1.0" standalone="no"?>
<!DOCTYPE svg PUBLIC "-//W3C//DTD SVG 20010904//EN"
 "http://www.w3.org/TR/2001/REC-SVG-20010904/DTD/svg10.dtd">
<svg version="1.0" xmlns="http://www.w3.org/2000/svg"
 width="1024.000000pt" height="1024.000000pt" viewBox="0 0 1024.000000 1024.000000"
 preserveAspectRatio="xMidYMid meet">

<g transform="translate(0.000000,1024.000000) scale(0.100000,-0.100000)"
fill="#000000" stroke="none">
<path d="M8783 8565 c-37 -16 -228 -139 -364 -235 -87 -62 -108 -72 -230 -109
-74 -22 -181 -51 -239 -65 -678 -163 -1101 -322 -1346 -504 -108 -80 -286
-256 -341 -337 -77 -114 -147 -278 -173 -400 -8 -39 -8 -39 -9 -7 -1 30 -4 32
-35 32 -19 0 -36 -3 -39 -7 -2 -5 -2 -2 -1 5 2 6 -3 12 -11 12 -7 0 -22 8 -31
18 -17 16 -18 16 -11 0 5 -15 1 -18 -26 -17 -18 1 -24 3 -14 6 21 6 23 23 1
23 -8 0 -12 5 -8 11 4 7 -1 10 -12 7 -11 -2 -20 -13 -22 -26 -2 -12 -9 -22
-17 -22 -7 0 -16 -6 -18 -12 -4 -10 -6 -10 -6 0 -1 7 6 15 14 18 16 7 21 44 5
44 -5 0 -7 -7 -3 -15 3 -9 2 -15 -3 -14 -22 4 -34 -2 -34 -17 0 -8 -5 -12 -10
-9 -6 4 -8 10 -5 15 3 5 -3 10 -12 12 -13 3 -22 -7 -30 -32 -9 -25 -11 -27 -8
-7 3 15 1 27 -4 27 -5 0 -12 12 -15 28 -2 15 -3 -36 -2 -113 3 -138 31 -325
48 -325 5 0 70 44 146 98 75 54 152 107 169 118 39 23 229 156 328 229 327
241 1140 802 1383 953 45 29 118 75 163 103 44 28 83 48 85 46 8 -7 -237 -227
-526 -474 -148 -125 -269 -230 -269 -233 -1 -3 29 -13 67 -23 189 -49 542
-151 542 -157 0 -3 -37 -14 -82 -24 -151 -33 -516 -126 -731 -187 -117 -33
-257 -71 -312 -85 -55 -14 -105 -29 -112 -33 -8 -4 52 -35 147 -76 88 -38 160
-72 160 -76 0 -8 -196 -158 -478 -368 -106 -79 -190 -147 -185 -152 4 -4 73
-37 153 -74 80 -37 150 -71 156 -76 11 -9 -106 -334 -231 -643 -25 -60 -43
-112 -40 -114 7 -7 198 111 445 273 504 331 817 594 1076 904 258 308 514 765
724 1291 98 245 276 778 268 800 -2 5 -17 2 -35 -5z m-998 -1487 c-77 -106
-388 -489 -527 -648 -159 -182 -568 -613 -575 -607 -6 6 141 255 277 467 63
98 100 163 100 174 0 2 -24 -5 -52 -16 -91 -34 -582 -205 -610 -212 -16 -3
-28 -5 -28 -2 0 7 418 279 540 351 63 37 185 111 270 164 226 141 624 379 633
380 5 1 -8 -22 -28 -51z m-1828 -154 c-3 -3 -12 -4 -19 -1 -8 3 -5 6 6 6 11 1
17 -2 13 -5z"/>
<path d="M4750 8309 c-223 -22 -566 -92 -774 -159 -626 -201 -1189 -597 -1571
-1105 -177 -236 -289 -425 -390 -659 -315 -727 -357 -1539 -118 -2281 88 -274
235 -577 396 -818 138 -208 399 -495 601 -661 218 -180 570 -389 845 -501 737
-300 1501 -344 2250 -129 196 56 291 91 461 168 673 306 1208 823 1542 1491
223 444 338 927 338 1416 0 377 -58 737 -170 1064 -49 142 -113 296 -121 292
-3 -1 -60 -58 -127 -128 l-121 -125 20 -45 c63 -139 127 -377 160 -589 18
-119 23 -198 26 -437 2 -170 0 -293 -6 -293 -5 0 -14 14 -21 30 -7 17 -17 33
-22 36 -5 3 -2 -11 7 -32 15 -37 15 -37 -44 22 -229 230 -558 342 -892 305
-224 -25 -213 -22 -186 -50 10 -11 10 -13 0 -7 -8 5 -13 1 -14 -11 0 -10 -3
-13 -6 -5 -2 6 -9 12 -14 12 -6 0 -8 -4 -4 -9 3 -5 0 -13 -6 -17 -8 -4 -9 -3
-5 4 4 7 3 12 -3 12 -5 0 -11 -8 -13 -17 -3 -15 -5 -15 -22 2 -18 19 -18 19
-12 -3 7 -20 5 -22 -17 -17 -14 4 -28 2 -32 -4 -4 -8 -12 -8 -26 -1 -14 8 -19
7 -19 -3 0 -9 -11 -14 -27 -15 -50 -2 -61 -5 -56 -19 3 -7 0 -13 -6 -13 -6 0
-11 5 -11 11 0 5 -5 7 -10 4 -6 -4 -8 -11 -5 -16 4 -5 2 -9 -4 -9 -5 0 -12 8
-14 18 -4 14 -6 14 -12 -5 -5 -17 -15 -23 -35 -23 -16 0 -31 -6 -34 -12 -5
-10 -7 -10 -12 0 -8 17 -25 15 -18 -2 4 -11 0 -13 -15 -9 -11 3 -18 9 -15 14
3 5 1 9 -5 9 -5 0 -13 -5 -16 -10 -4 -6 -10 -8 -15 -5 -5 3 -11 1 -14 -4 -3
-4 4 -8 17 -7 13 1 23 -6 25 -16 2 -10 -2 -18 -8 -18 -6 0 -8 5 -5 10 3 6 -3
10 -15 10 -12 0 -18 -4 -15 -10 3 -5 1 -18 -4 -27 -9 -15 -11 -12 -12 17 -1
35 -1 35 -12 -10 l-11 -45 -7 35 c-4 25 -7 9 -8 -52 l-1 -87 38 14 c20 7 73
28 117 45 375 149 746 182 1015 90 316 -109 501 -348 469 -607 -10 -77 -121
-403 -137 -403 -4 0 -20 24 -36 53 -37 65 -130 159 -215 216 -128 87 -291 145
-480 172 -221 31 -576 -19 -846 -121 -164 -61 -486 -211 -740 -345 -672 -355
-980 -492 -1265 -565 -185 -47 -291 -60 -500 -60 -179 -1 -246 9 -430 62 -65
18 -106 26 -108 19 -2 -7 -11 -7 -27 1 -15 7 -21 16 -18 26 5 12 1 14 -15 10
-12 -4 -22 -2 -22 3 0 5 -6 9 -12 9 -23 -1 81 -86 157 -130 210 -119 400 -169
652 -170 328 -1 644 89 1118 317 121 58 225 109 230 113 26 19 473 245 575
290 297 133 556 223 720 249 145 24 298 32 405 21 300 -31 513 -157 616 -365
23 -47 40 -87 37 -90 -2 -3 -22 8 -44 24 -63 47 -159 91 -195 91 l-34 0 23
-18 c24 -18 21 -35 -4 -25 -12 5 -19 -7 -15 -29 0 -5 -4 -8 -10 -8 -21 0 -38
-34 -32 -63 4 -21 0 -33 -16 -48 -26 -24 -26 -29 -3 -22 12 3 19 -1 19 -10 0
-13 -9 -12 -51 5 -91 37 -209 69 -296 79 -155 19 -363 -10 -493 -68 l-59 -26
62 -23 c33 -12 77 -33 98 -47 20 -14 82 -42 137 -62 55 -20 104 -41 109 -45 5
-5 22 -6 37 -3 60 12 109 -27 109 -87 0 -34 -44 -70 -84 -70 -29 0 -41 7 -67
40 l-32 40 -81 0 c-165 -1 -317 -55 -416 -149 l-55 -52 170 -65 c146 -55 173
-63 196 -54 85 35 158 -76 94 -144 -44 -48 -125 -29 -148 35 -11 31 -126 37
-262 14 -170 -30 -330 -112 -449 -230 -42 -41 -84 -94 -97 -122 l-24 -50 -115
-6 c-129 -6 -205 -24 -297 -68 -67 -33 -158 -108 -168 -139 -6 -18 -15 -20
-78 -19 -54 1 -65 3 -42 9 30 8 30 8 -7 9 -28 1 -38 5 -38 17 0 10 -6 14 -14
11 -9 -4 -19 5 -27 25 -7 17 -24 34 -39 40 -15 5 -32 20 -38 33 -7 14 -17 25
-24 25 -9 0 -9 3 -1 11 6 6 8 19 6 30 -4 15 -9 16 -24 8 -10 -5 -19 -6 -19 -2
0 13 40 34 50 28 6 -4 10 0 10 7 0 24 47 80 97 115 62 44 158 73 243 73 37 0
84 7 103 15 50 21 61 19 36 -6 -11 -11 -19 -22 -17 -24 3 -3 125 -53 148 -61
8 -3 3 2 -12 11 -30 17 -37 28 -13 19 11 -5 13 -2 9 10 -3 9 -1 16 5 16 20 0
12 27 -10 33 -16 4 -18 3 -8 -9 8 -10 8 -14 0 -14 -19 0 -34 52 -19 62 19 11
0 10 -23 -2 -13 -7 -19 -7 -19 0 0 5 41 30 90 55 50 25 90 50 90 55 0 6 33 43
73 83 118 119 272 186 432 188 65 1 73 3 41 9 -40 8 -63 29 -44 42 18 10 -6
56 -37 70 -14 6 -25 16 -25 21 0 5 -7 4 -15 -3 -9 -7 -15 -8 -15 -2 0 5 -12
17 -26 27 -15 9 -23 11 -19 4 5 -8 4 -10 -3 -5 -7 4 -12 15 -12 25 0 9 -6 25
-13 35 -12 16 -21 13 -132 -37 -66 -30 -151 -70 -190 -89 -38 -19 -144 -72
-235 -118 -430 -215 -711 -319 -1010 -372 -182 -33 -527 -32 -715 1 -71 12
-132 25 -135 28 -3 3 11 3 30 0 102 -17 130 -19 130 -8 0 6 -16 11 -36 11 -31
0 -35 2 -24 15 10 12 10 15 -4 15 -9 0 -16 7 -16 15 0 8 -6 15 -12 15 -13 0
-47 49 -59 85 -4 11 -7 14 -8 7 -1 -7 -6 -10 -11 -7 -6 4 -8 11 -5 16 4 5 1 9
-5 9 -6 0 -9 8 -6 18 8 27 -14 47 -79 71 -171 64 -331 150 -465 250 -105 79
-267 243 -322 327 -470 712 -568 1693 -256 2559 56 157 184 410 275 547 423
632 1000 1050 1717 1243 493 132 1049 137 1516 13 63 -17 127 -32 141 -32 20
-1 54 25 148 112 66 63 121 118 121 122 0 12 -223 84 -350 114 -119 29 -302
61 -435 76 -124 15 -519 21 -635 9z m1920 -3269 c0 -5 -4 -10 -10 -10 -5 0
-10 5 -10 10 0 6 5 10 10 10 6 0 10 -4 10 -10z m610 -1415 c-9 -10 -9 -15 -1
-15 6 0 11 -5 11 -10 0 -6 -8 -5 -20 2 -19 12 -19 14 -3 26 23 16 28 15 13 -3z
m0 -75 c0 -5 -5 -10 -11 -10 -5 0 -7 5 -4 10 3 6 8 10 11 10 2 0 4 -4 4 -10z
m-3826 -820 c-6 -6 -10 -3 -10 10 0 13 4 16 10 10 7 -7 7 -13 0 -20z m1256
-320 c0 -5 -4 -10 -10 -10 -5 0 -10 5 -10 10 0 6 5 10 10 10 6 0 10 -4 10 -10z
m34 -46 c5 -14 4 -15 -9 -4 -17 14 -19 20 -6 20 5 0 12 -7 15 -16z"/>
<path d="M5094 7772 c-65 -23 -124 -70 -163 -129 -50 -75 -59 -129 -35 -210 6
-21 4 -21 -103 -21 -87 0 -119 -4 -165 -21 -133 -51 -211 -170 -229 -352 -6
-55 -9 -103 -7 -105 3 -2 36 3 74 11 89 19 281 19 359 0 33 -8 64 -14 69 -15
5 0 6 37 2 84 l-7 84 44 36 45 37 34 -20 c51 -30 153 -54 201 -46 161 25 258
108 302 259 45 155 -37 334 -183 399 -66 28 -172 33 -238 9z"/>
<path d="M3860 7581 c-93 -33 -170 -135 -170 -225 l0 -27 -73 7 c-175 16 -300
-58 -350 -208 -9 -26 -20 -84 -23 -129 -7 -78 -6 -82 12 -74 105 45 363 45
466 0 16 -6 17 -1 12 68 -4 43 -3 77 3 80 5 3 34 -6 64 -21 46 -23 67 -27 139
-27 103 0 145 19 213 95 101 112 102 269 2 388 -62 74 -198 107 -295 73z"/>
<path d="M5782 7024 c-7 -8 -10 -19 -6 -26 5 -7 10 -3 16 12 10 28 7 33 -10
14z"/>
<path d="M6020 6976 c0 -2 7 -7 16 -10 8 -3 12 -2 9 4 -6 10 -25 14 -25 6z"/>
<path d="M3361 6829 c-29 -5 -73 -18 -96 -28 -50 -22 -46 -3 -65 -326 -6 -99
-22 -326 -35 -505 -13 -179 -38 -563 -55 -855 -16 -291 -35 -591 -40 -665 -5
-74 -10 -148 -10 -164 0 -33 -7 -32 -87 17 l-53 31 0 221 c0 121 -3 291 -7
377 l-6 157 -44 -30 c-54 -37 -121 -122 -163 -204 -71 -139 -61 -333 25 -479
37 -64 143 -159 217 -195 103 -50 183 -65 358 -65 335 0 565 89 1215 476 324
192 610 348 640 348 3 0 5 -39 5 -87 l-1 -88 -66 -30 c-116 -52 -342 -187
-448 -269 -199 -154 -312 -262 -384 -370 -66 -97 -101 -120 -278 -178 -268
-89 -501 -126 -733 -115 -317 15 -614 155 -745 353 -48 72 -107 97 -75 32 11
-22 10 -22 -9 2 l-21 25 9 -25 c111 -309 414 -538 800 -604 133 -23 363 -21
521 4 403 62 671 178 1370 593 319 189 691 386 873 462 l67 28 0 716 0 716
-202 84 c-112 46 -303 125 -426 175 l-222 90 -110 -109 -109 -109 -3 -145 -3
-144 -235 -113 c-129 -62 -380 -184 -558 -270 -177 -86 -324 -155 -326 -153
-4 5 -30 374 -56 799 -32 527 -35 562 -56 577 -54 40 -259 63 -373 42z m2122
-778 l67 -25 0 -134 c0 -124 -1 -134 -17 -128 -10 4 -44 17 -75 29 l-58 22 0
133 c0 74 4 132 8 130 4 -1 38 -14 75 -27z m282 -116 l55 -24 0 -127 0 -126
-25 6 c-14 4 -50 17 -80 31 l-55 24 0 127 0 126 25 -6 c14 -4 50 -17 80 -31z
m-283 -321 l68 -26 0 -134 c0 -74 -3 -134 -7 -134 -4 0 -38 12 -75 27 l-68 26
0 134 c0 73 3 133 7 133 4 0 38 -12 75 -26z m-542 -275 l0 -260 -135 -65 c-75
-35 -142 -64 -150 -64 -13 0 -15 37 -15 258 l0 257 143 72 c78 39 145 69 150
66 4 -2 7 -121 7 -264z m812 164 l68 -26 0 -130 0 -129 -27 7 c-16 3 -52 17
-80 30 l-53 24 0 125 c0 93 3 126 12 126 7 0 43 -12 80 -27z m-1524 -518 l-3
-289 -95 -42 c-52 -24 -101 -43 -108 -43 -10 -1 -12 60 -10 286 l3 286 100 51
c55 28 103 49 108 46 4 -4 6 -136 5 -295z m1315 156 c4 -4 6 -66 5 -138 l-3
-130 -70 26 -70 27 -3 137 -3 137 68 -25 c37 -14 71 -29 76 -34z m220 -76 l57
-25 0 -130 c0 -96 -3 -130 -12 -130 -7 0 -43 12 -80 26 l-68 26 0 135 0 135
23 -6 c13 -3 49 -17 80 -31z m-2093 -333 l0 -299 -93 -36 c-51 -20 -98 -37
-105 -37 -9 0 -12 67 -12 288 l0 287 93 47 c50 26 98 47 105 47 9 1 12 -65 12
-297z"/>
<path d="M4535 6834 c-63 -13 -137 -39 -149 -53 -16 -18 -27 -121 -51 -506 -9
-132 -20 -303 -25 -379 -6 -77 -9 -141 -7 -143 3 -2 130 58 283 134 l279 138
3 117 c2 111 4 117 27 132 46 30 48 42 34 278 -14 255 -10 245 -129 272 -62
15 -215 20 -265 10z"/>
<path d="M2845 6661 c-3 -6 1 -11 10 -11 8 0 20 -10 25 -22 6 -15 9 -17 9 -7
1 21 -35 54 -44 40z"/>
<path d="M2788 6603 c-25 -6 -22 -18 7 -31 16 -7 26 -8 30 -1 4 5 1 8 -7 7 -7
-2 -12 5 -12 15 1 9 1 16 0 16 0 -1 -9 -3 -18 -6z"/>
<path d="M2926 6581 c-4 -5 3 -7 14 -4 23 6 26 13 6 13 -8 0 -17 -4 -20 -9z"/>
<path d="M2856 6505 c-9 -26 -7 -32 5 -12 6 10 9 21 6 23 -2 3 -7 -2 -11 -11z"/>
<path d="M2467 6036 c-12 -31 -7 -116 9 -154 19 -47 59 -88 108 -114 48 -25
150 -27 193 -5 70 37 123 126 123 207 0 50 -8 54 -37 19 -36 -42 -97 -70 -164
-76 -50 -5 -67 -2 -115 22 -35 17 -63 39 -73 57 -32 58 -37 63 -44 44z"/>
<path d="M7575 5824 c4 -29 3 -33 -3 -14 l-8 25 -7 -27 c-4 -14 -19 -41 -34
-59 -21 -25 -23 -30 -8 -22 11 6 27 8 35 6 13 -4 13 -3 0 7 -12 9 -10 11 12 7
40 -6 49 11 35 60 -17 56 -27 64 -22 17z"/>
<path d="M7605 5750 c-3 -5 -1 -10 5 -10 6 0 8 -4 5 -10 -3 -5 3 -10 14 -10
20 0 20 1 4 20 -20 23 -20 23 -28 10z"/>
<path d="M7606 5668 c-31 -16 -50 -19 -85 -14 l-46 6 33 -27 c22 -19 39 -47
51 -83 l18 -55 16 55 c19 63 42 89 107 117 l45 19 -50 2 c-33 1 -63 -6 -89
-20z"/>
<path d="M2450 5514 c0 -10 5 -26 10 -34 8 -11 9 -7 4 15 -8 37 -14 45 -14 19z"/>
<path d="M2495 5420 c10 -11 20 -20 23 -20 3 0 -3 9 -13 20 -10 11 -20 20 -23
20 -3 0 3 -9 13 -20z"/>
<path d="M2330 5380 c20 -13 33 -13 25 0 -3 6 -14 10 -23 10 -15 0 -15 -2 -2
-10z"/>
<path d="M2531 5373 c-42 -29 -94 -43 -106 -28 -5 7 -21 16 -35 20 -23 7 -23
6 7 -19 17 -15 34 -40 38 -56 7 -34 25 -50 25 -23 0 29 36 75 77 100 21 13 33
23 28 23 -6 0 -21 -8 -34 -17z"/>
<path d="M6690 5090 c-8 -5 -10 -10 -5 -10 6 0 17 5 25 10 8 5 11 10 5 10 -5
0 -17 -5 -25 -10z"/>
<path d="M6520 5060 c-21 -7 -21 -8 -5 -9 11 0 27 4 35 9 18 11 5 11 -30 0z"/>
<path d="M6464 5027 c-3 -8 -19 -14 -36 -15 -16 0 -33 -4 -36 -7 -4 -3 14 -5
39 -4 36 2 45 6 45 21 0 21 -5 23 -12 5z"/>
<path d="M7535 4400 c10 -11 20 -20 23 -20 3 0 -3 9 -13 20 -10 11 -20 20 -23
20 -3 0 3 -9 13 -20z"/>
<path d="M7486 4402 c-2 -4 7 -13 21 -19 25 -12 25 -12 8 7 -20 22 -22 23 -29
12z"/>
<path d="M2391 4254 c0 -11 3 -14 6 -6 3 7 2 16 -1 19 -3 4 -6 -2 -5 -13z"/>
<path d="M7250 3685 c-11 -13 -10 -14 4 -9 9 3 16 10 16 15 0 13 -6 11 -20 -6z"/>
<path d="M5828 3313 c7 -3 16 -2 19 1 4 3 -2 6 -13 5 -11 0 -14 -3 -6 -6z"/>
<path d="M3450 2800 c0 -5 5 -10 11 -10 5 0 7 5 4 10 -3 6 -8 10 -11 10 -2 0
-4 -4 -4 -10z"/>
<path d="M5387 2600 c-4 -17 0 -20 30 -20 27 0 34 -3 30 -15 -4 -10 4 -17 26
-23 18 -6 56 -19 86 -31 54 -22 69 -22 56 -1 -4 6 -16 10 -28 8 -15 -2 -25 4
-32 19 -7 16 -15 21 -31 17 -16 -4 -24 0 -28 14 -5 13 -19 22 -46 26 -22 3
-40 11 -40 16 0 18 -18 10 -23 -10z"/>
</g>
</svg>
